<?xml version="1.0" standalone="no"?><!DOCTYPE svg PUBLIC "-//W3C//DTD SVG 1.1//EN" "http://www.w3.org/Graphics/SVG/1.1/DTD/svg11.dtd"><svg t="1777273192342" class="icon" viewBox="0 0 1054 1024" version="1.1" xmlns="http://www.w3.org/2000/svg" p-id="1681" width="131.75" height="128" xmlns:xlink="http://www.w3.org/1999/xlink"><path d="M612.888054 64.142604C602.807839 27.031195 568.904161 0 528.402899 0c-37.111409 0-74.315597 23.550282-84.486872 60.706362-10.078497 40.547651 6.735034 74.360268 50.674255 98.048 6.688644 3.345181 20.296161 10.124886 20.296161 16.85992v77.65906h27.031195V182.395705c0-10.124886 10.080215-20.296161 20.25149-23.687732 43.937503-20.249772 60.843812-54.108779 50.718926-94.565369z m271.691597 346.510604a155.684081 155.684081 0 0 0-155.73047-155.637691h-399.978523a155.684081 155.684081 0 0 0-155.73047 155.637691v256.711302a155.684081 155.684081 0 0 0 155.73047 155.637691h399.978523a155.684081 155.684081 0 0 0 155.73047-155.637691V410.653208zM651.32757 475.575839c-12.37047-6.185235-21.624268-21.670658-18.555704-37.157799 3.116671-15.485423 21.625987-34.041128 46.320537-30.970845 16.49396 2.077208 24.74094 16.523168 24.740939 43.341315v18.327195a9.987436 9.987436 0 0 1-9.391248 10.171275c-21.534926 1.130523-35.905289-0.106523-43.114524-3.711141zM390.128537 664.340617a30.879785 30.879785 0 0 1-28.223571-43.526872l77.750121-173.552537a41.18851 41.18851 0 0 1 37.570148-24.328591h25.381799c18.511034 0 34.730094 12.37047 39.678281 30.147866l52.321933 188.30604a20.61745 20.61745 0 0 1-19.839141 26.069047h-19.380402a20.61745 20.61745 0 0 1-19.699973-14.660724l-44.214121-145.880484a5.132027 5.132027 0 0 0-9.621477-0.733637l-46.365208 98.231839c-1.604725 3.389852 0.869369 7.329503 4.6269 7.329503h39.676563c7.74357 0 12.691758 8.24698 9.071678 15.119463l-8.24698 15.578202a41.18851 41.18851 0 0 1-36.377772 21.900885h-54.108778z m548.743731-21.991946c60.799141 3.436242 114.907919-50.627866 114.90792-111.334228 0-57.500349-54.155168-108.219275-114.90792-104.829423v216.163651z m-823.964349 0.044671V426.140349C47.329074 429.576591 0 476.903946 0 537.656698c3.436242 57.409289 54.155168 104.736644 114.907919 104.736644z m538.756296 28.177181a30.879785 30.879785 0 0 1-30.833396-33.17004l7.788241-105.379221c1.200966-16.136591 14.653852-28.610148 30.835114-28.58953h2.886443c17.959517 0 32.116832 15.256913 30.788725 33.171758l-7.789959 105.377503c-1.199248 16.119409-14.624644 28.586094-30.788725 28.58953h-2.886443zM285.299114 931.955114h483.135571c30.544752 0 45.817128 15.272376 45.817127 45.815409 0 30.544752-15.272376 45.817128-45.817127 45.817128h-483.135571c-30.543034 0-45.815409-15.272376-45.815409-45.817128 0-30.543034 15.272376-45.815409 45.815409-45.815409z" fill="#1296db" p-id="1682"></path></svg>